<svg width="40" height="40" viewBox="0 0 40 40" fill="none" xmlns="http://www.w3.org/2000/svg">
<path d="M20.1044 29.6793C19.3509 29.6547 18.6212 29.4087 18.0067 28.9721C17.3921 28.5354 16.9197 27.9274 16.6486 27.2239C16.3775 26.5204 16.3196 25.7526 16.4822 25.0164C16.6447 24.2801 17.0205 23.6081 17.5627 23.0843C18.1049 22.5604 18.7893 22.2077 19.5307 22.0705C20.272 21.9332 21.0373 22.0173 21.7311 22.3124C22.425 22.6074 23.0165 23.1003 23.4319 23.7294C23.8472 24.3586 24.0682 25.0962 24.0669 25.8501C24.0472 26.8827 23.6191 27.8654 22.8765 28.5831C22.1338 29.3007 21.137 29.6949 20.1044 29.6793ZM20.1044 24.5126C19.8466 24.5368 19.6013 24.6354 19.3985 24.7962C19.1955 24.9571 19.0437 25.1734 18.9613 25.419C18.879 25.6645 18.8697 25.9286 18.9345 26.1793C18.9995 26.43 19.1357 26.6565 19.3268 26.8313C19.5179 27.006 19.7556 27.1216 20.0111 27.1638C20.2665 27.2061 20.5288 27.1733 20.766 27.0694C21.0032 26.9655 21.2052 26.795 21.3473 26.5786C21.4895 26.3621 21.5657 26.1091 21.5669 25.8501C21.5485 25.4794 21.3846 25.131 21.1107 24.8806C20.8369 24.6301 20.4752 24.4979 20.1044 24.5126Z" fill="#990000"/>
<path d="M27.2501 37.4417H24.7502C24.7502 34.9667 22.6085 32.9334 19.9793 32.9334C17.3501 32.9334 15.196 34.9667 15.196 37.4417H12.696C12.696 33.5875 15.9585 30.4334 19.9793 30.4334C24.0001 30.4334 27.2501 33.5875 27.2501 37.4417Z" fill="#990000"/>
<path d="M13.7042 13.6583C14.8019 13.6583 15.6917 12.7685 15.6917 11.6708C15.6917 10.5731 14.8019 9.68328 13.7042 9.68328C12.6065 9.68328 11.7167 10.5731 11.7167 11.6708C11.7167 12.7685 12.6065 13.6583 13.7042 13.6583Z" fill="#990000"/>
<path d="M20.0249 13.6583C21.1226 13.6583 22.0124 12.7685 22.0124 11.6708C22.0124 10.5731 21.1226 9.68328 20.0249 9.68328C18.9273 9.68328 18.0374 10.5731 18.0374 11.6708C18.0374 12.7685 18.9273 13.6583 20.0249 13.6583Z" fill="#990000"/>
<path d="M26.3294 13.6583C27.427 13.6583 28.3169 12.7685 28.3169 11.6708C28.3169 10.5731 27.427 9.68328 26.3294 9.68328C25.2317 9.68328 24.3419 10.5731 24.3419 11.6708C24.3419 12.7685 25.2317 13.6583 26.3294 13.6583Z" fill="#990000"/>
<path d="M28.4418 2.51673H11.5335C10.3377 2.49098 9.14896 2.70425 8.03675 3.14402C6.92455 3.5838 5.91137 4.24124 5.05662 5.07777C4.20187 5.91431 3.52276 6.9131 3.05913 8.01557C2.5955 9.11807 2.35669 10.302 2.35669 11.498C2.35669 12.694 2.5955 13.8779 3.05913 14.9804C3.52276 16.0829 4.20187 17.0816 5.05662 17.9182C5.91137 18.7547 6.92455 19.4121 8.03675 19.8519C9.14896 20.2917 10.3377 20.505 11.5335 20.4792H24.6002V17.9792H11.5335C10.6685 18.0011 9.80789 17.8497 9.00239 17.5339C8.19689 17.2181 7.46275 16.7441 6.8432 16.1401C6.22368 15.5361 5.73133 14.8142 5.39516 14.0169C5.05899 13.2197 4.8858 12.3632 4.8858 11.498C4.8858 10.6327 5.05899 9.77629 5.39516 8.979C5.73133 8.18172 6.22368 7.45986 6.8432 6.85583C7.46275 6.25182 8.19689 5.77793 9.00239 5.46207C9.80789 5.14622 10.6685 4.9948 11.5335 5.01673H28.4418C30.1628 5.01894 31.8125 5.70443 33.0282 6.92252C34.244 8.14057 34.9262 9.79157 34.9252 11.5126C34.9628 12.2981 34.8392 13.0831 34.5619 13.8191C34.2845 14.5551 33.8594 15.2264 33.3127 15.7917L33.1043 16.0459C32.5252 16.7459 30.3335 19.1834 28.621 21.1084V17.9917H26.121V20.4917H26.1418V27.6126L28.3127 25.2042C28.546 24.9459 34.0418 18.8626 35.046 17.6292L35.2418 17.3917C35.9787 16.6057 36.5526 15.6814 36.9302 14.6724C37.3078 13.6632 37.4817 12.5893 37.4418 11.5126C37.4424 10.3307 37.2099 9.16036 36.7577 8.06843C36.3056 6.97646 35.6426 5.98436 34.8067 5.14886C33.9709 4.31335 32.9785 3.65083 31.8863 3.19919C30.7942 2.74755 29.6237 2.51564 28.4418 2.51673Z" fill="#990000"/>
</svg>
