<svg width="40" height="40" viewBox="0 0 40 40" fill="none" xmlns="http://www.w3.org/2000/svg">
<path d="M13.2165 32.4125C10.0498 32.4125 7.38313 31.1 5.87066 28.8166C4.50398 26.7333 3.48316 22.8541 6.37482 16.2084C8.04149 12.4209 11.454 9.125 14.9165 7.975C16.979 7.3 18.8998 7.425 20.4748 8.3375C20.9999 8.63928 21.4463 9.06071 21.7779 9.5675C22.1096 10.0743 22.3169 10.6521 22.3831 11.2541C22.7581 13.9666 20.8915 17.3 18.9998 19.25L17.204 17.5166C18.9331 15.7375 20.1206 13.1416 19.904 11.6041C19.8886 11.3806 19.8182 11.1643 19.699 10.9746C19.5798 10.7848 19.4154 10.6275 19.2206 10.5166C18.0331 9.82914 16.6498 10.0541 15.6956 10.3666C12.8956 11.2666 10.0248 14.0834 8.66649 17.2041C6.73316 21.6541 6.48732 25.1958 7.96235 27.4458C8.99149 29.0125 10.9081 29.9125 13.2165 29.9125C18.9998 29.9125 28.5165 24.4375 30.5915 12.6916L33.054 13.1084C30.704 26.4291 20.0415 32.4125 13.2165 32.4125Z" fill="#990000"/>
<path d="M37.4416 34.9126H2.47906V37.4126H37.4416V34.9126Z" fill="#990000"/>
<path d="M37.4999 8.98343C37.499 10.2457 37.124 11.4795 36.4221 12.5286C35.7202 13.5779 34.723 14.3954 33.5565 14.8779C32.39 15.3604 31.1067 15.4862 29.8687 15.2394C28.6307 14.9926 27.4937 14.3844 26.6014 13.4915C25.7091 12.5986 25.1015 11.4611 24.8556 10.2231C24.6096 8.98493 24.7362 7.70165 25.2195 6.53549C25.7028 5.36933 26.521 4.37264 27.5706 3.67141C28.6202 2.97019 29.8542 2.59592 31.1165 2.59592C31.9552 2.59592 32.7856 2.76116 33.5603 3.08222C34.335 3.40327 35.039 3.87383 35.6317 4.46703C36.2245 5.06021 36.6946 5.7644 37.0152 6.53934C37.3357 7.31429 37.5005 8.14479 37.4999 8.98343Z" fill="#990000"/>
<path d="M26.3958 4.65419H32.1083C33.4167 4.65419 34.3167 4.99586 34.8917 5.58336C35.1487 5.84413 35.3488 6.15543 35.4794 6.49754C35.6099 6.83965 35.668 7.20514 35.65 7.57086V7.59586C35.6685 8.16236 35.5087 8.72043 35.1932 9.19136C34.8778 9.66228 34.4225 10.0224 33.8917 10.2209L35.9292 13.1959H33.1958L31.475 10.6084H30.4375V13.1959H28.0708V6.06669L26.3958 4.65419ZM32 8.76671C32.8042 8.76671 33.25 8.375 33.25 7.75421V7.72921C33.25 7.05836 32.7625 6.71669 31.9708 6.71669H30.4375V8.76671H32Z" fill="#FEFEFE"/>
</svg>
