<svg width="40" height="40" viewBox="0 0 40 40" fill="none" xmlns="http://www.w3.org/2000/svg">
<path d="M29.8793 10.0542L28.7001 12.2584L31.4585 13.7334C31.1793 29.6001 22.0209 34.0334 20.0709 34.7958C17.9876 34.0542 7.86264 29.6667 7.53764 13.7751L20.0959 7.85421L22.4793 8.95842V6.20422L20.0709 5.09172L5.0293 12.1959V12.9876C5.0293 23.3751 8.99178 29.4251 12.3126 32.6709C15.9501 36.2251 19.6001 37.2542 19.7543 37.3167L20.1084 37.4167L20.4584 37.3084C21.0084 37.1417 33.9626 32.9334 33.9626 12.9876V12.2376L29.8793 10.0542Z" fill="#990000"/>
<path d="M37.5002 8.98343C37.4994 10.2457 37.1243 11.4795 36.4224 12.5286C35.7205 13.5779 34.7233 14.3954 33.5568 14.8779C32.3903 15.3604 31.107 15.4862 29.869 15.2394C28.631 14.9926 27.494 14.3844 26.6017 13.4915C25.7094 12.5986 25.1018 11.4611 24.8558 10.2231C24.6099 8.98493 24.7366 7.70164 25.2199 6.53549C25.7031 5.36933 26.5213 4.37264 27.5709 3.67141C28.6206 2.97019 29.8546 2.59592 31.1168 2.59592C31.9555 2.59592 32.7859 2.76116 33.5606 3.08222C34.3354 3.40327 35.0392 3.87383 35.6321 4.46702C36.2248 5.06021 36.6949 5.7644 37.0155 6.53934C37.3361 7.31429 37.5008 8.14479 37.5002 8.98343Z" fill="#990000"/>
<path d="M26.3962 4.65419H32.1087C33.417 4.65419 34.317 4.99585 34.892 5.58335C35.149 5.84413 35.3492 6.15543 35.4797 6.49754C35.6102 6.83965 35.6683 7.20514 35.6503 7.57085V7.59585C35.6688 8.16235 35.509 8.72043 35.1936 9.19135C34.8782 9.66228 34.4229 10.0224 33.892 10.2209L35.9295 13.1959H33.1962L31.4753 10.6084H30.4378V13.1959H28.0712V6.06669L26.3962 4.65419ZM32.0003 8.76671C32.8045 8.76671 33.2503 8.375 33.2503 7.75421V7.72921C33.2503 7.05835 32.7628 6.71669 31.9712 6.71669H30.4378V8.76671H32.0003Z" fill="#FEFEFE"/>
</svg>
