<svg width="101" height="175" viewBox="0 0 101 175" fill="none" xmlns="http://www.w3.org/2000/svg">
<path opacity="0.08" d="M0.736391 175C0.245463 172.054 0 169.027 0 165.918C0 155.445 1.88189 145.953 5.64566 137.444C9.57307 128.935 14.4005 121.243 20.128 114.37C25.8555 107.334 31.9921 100.87 38.5378 94.9789C45.2471 88.9241 51.4655 83.1966 57.193 77.7964C62.9205 72.2326 67.6661 66.7506 71.4299 61.3504C75.3573 55.7865 77.321 49.8954 77.321 43.677C77.321 36.804 74.7845 31.1584 69.7116 26.74C64.6387 22.158 58.093 19.8671 50.0745 19.8671C43.2016 19.8671 36.9013 21.258 31.1739 24.0399C25.61 26.6582 20.3735 30.2583 15.4642 34.8403L3.19102 19.8671C9.73672 13.9759 16.937 9.2303 24.7918 5.63017C32.8103 2.03004 42.0561 0.22998 52.5292 0.22998C59.7294 0.22998 66.2751 1.29365 72.1662 3.42099C78.221 5.54834 83.2939 8.57572 87.385 12.5031C91.6397 16.2669 94.9125 20.6852 97.2035 25.7582C99.4945 30.8311 100.64 36.3131 100.64 42.2042C100.64 50.0591 98.8399 57.3411 95.2398 64.0505C91.8033 70.5962 87.385 76.8964 81.9848 82.9511C76.7482 88.8423 70.9389 94.5697 64.5569 100.134C58.3385 105.534 52.4474 111.098 46.8835 116.825C41.3197 122.553 36.4104 128.526 32.1557 134.744C28.0647 140.962 25.61 147.672 24.7918 154.872H100.395V175H0.736391Z" fill="#5A5650"/>
</svg>
