<svg width="107" height="178" viewBox="0 0 107 178" fill="none" xmlns="http://www.w3.org/2000/svg">
<path opacity="0.08" d="M47.8654 177.945C37.065 177.945 27.7374 176.555 19.8825 173.773C12.1913 170.827 5.56384 167.309 0 163.218L10.064 144.808C14.646 148.244 19.8825 151.272 25.7737 153.89C31.8284 156.508 39.2742 157.818 48.1108 157.818C58.9112 157.818 67.4206 155.036 73.639 149.472C80.0211 143.744 83.2121 136.544 83.2121 127.871C83.2121 123.453 82.3121 119.198 80.512 115.107C78.7119 111.016 75.8482 107.497 71.9208 104.552C68.157 101.443 63.3296 98.9881 57.4384 97.188C51.711 95.388 44.838 94.4879 36.8195 94.4879H23.0736V76.5691H35.8377C43.0379 76.5691 49.3382 75.7509 54.7383 74.1145C60.1385 72.3144 64.5569 69.9416 67.9934 66.996C71.5935 64.0505 74.2118 60.7776 75.8482 57.1775C77.6483 53.4137 78.5483 49.5681 78.5483 45.6407C78.5483 37.9495 75.6027 31.7311 69.7116 26.9855C63.9841 22.2399 56.8657 19.8671 48.3563 19.8671C40.5015 19.8671 33.6285 21.1762 27.7374 23.7945C21.8462 26.2491 17.0188 29.031 13.255 32.1402L4.17288 14.7123C9.08215 11.4395 15.3824 8.24845 23.0736 5.13924C30.7648 1.8664 39.7651 0.22998 50.0745 0.22998C58.093 0.22998 65.2114 1.37547 71.4299 3.66647C77.8119 5.95746 83.1303 9.06666 87.385 12.9941C91.8033 16.9215 95.158 21.5035 97.449 26.74C99.74 31.8129 100.885 37.1313 100.885 42.6951C100.885 52.5137 98.4308 60.6958 93.5216 67.2415C88.7759 73.6235 81.9848 78.9419 73.1481 83.1966C83.4576 87.124 91.476 92.8515 97.2035 100.379C103.095 107.907 106.04 116.825 106.04 127.135C106.04 133.517 104.813 139.817 102.358 146.035C100.067 152.09 96.549 157.49 91.8033 162.236C87.0577 166.981 81.0029 170.827 73.639 173.773C66.2751 176.555 57.6839 177.945 47.8654 177.945Z" fill="#5A5650"/>
</svg>
