<svg width="106" height="175" viewBox="0 0 106 175" fill="none" xmlns="http://www.w3.org/2000/svg">
<path opacity="0.08" d="M105.549 118.559C105.549 126.741 104.076 134.269 101.131 141.141C98.349 148.014 94.258 153.987 88.8578 159.06C83.6212 163.97 77.321 167.815 69.9571 170.597C62.5932 173.379 54.4111 174.77 45.4107 174.77C35.2649 174.77 26.5919 173.706 19.3916 171.579C12.355 169.288 5.89112 166.097 0 162.006L11.5368 143.105C16.1188 146.378 21.1917 149.16 26.7555 151.451C32.3194 153.578 38.6196 154.642 45.6562 154.642C51.0564 154.642 55.9657 153.824 60.384 152.187C64.966 150.551 68.8116 148.26 71.9208 145.314C75.1936 142.205 77.7301 138.605 79.5302 134.514C81.3302 130.423 82.2303 125.923 82.2303 121.013C82.2303 110.704 78.7119 102.358 71.6753 95.9762C64.8023 89.5942 54.902 86.4031 41.9742 86.4031H11.5368V0H96.4671V19.8825H32.4012V66.5206H44.6744C54.1656 66.5206 62.675 67.8297 70.2025 70.448C77.7301 72.9026 84.1121 76.5028 89.3487 81.2484C94.5853 85.8304 98.5945 91.3124 101.376 97.6945C104.158 104.076 105.549 111.031 105.549 118.559Z" fill="#5A5650"/>
</svg>
