<svg width="90" height="69" viewBox="0 0 90 69" fill="none" xmlns="http://www.w3.org/2000/svg">
<path opacity="0.2" d="M7.90001 63.0745C5.23333 60.1955 3.26669 57.149 2.00001 53.9352C0.666674 50.4535 1.12657e-05 46.3024 1.12657e-05 41.4816C1.12657e-05 35.7235 1.26667 30.1329 3.80001 24.7095C6.33336 19.487 9.86666 14.7668 14.4 10.5486C18.9334 6.33044 24.1666 2.91578 30.1 0.304538L34.6 7.23435C27.2666 11.2516 21.8 16.1728 18.2 21.9978C15.9333 25.7473 14.3333 30.2332 13.4 35.4557C16.0667 34.0497 19.2667 33.5475 23 33.9492C26 34.2171 28.7333 35.1544 31.2 36.7613C33.6667 38.3683 35.6167 40.4606 37.05 43.0383C38.4834 45.6161 39.2 48.4114 39.2 51.4244C39.2 54.6382 38.4 57.5842 36.8 60.2624C35.2 62.9406 33.0667 65.0664 30.4 66.6398C27.7333 68.2133 24.8334 69 21.7 69C19.0333 69 16.4834 68.4644 14.05 67.3931C11.6167 66.3218 9.56668 64.8823 7.90001 63.0745ZM57.9 63.0745C55.2333 60.1955 53.2667 57.149 52 53.9352C50.6667 50.4535 50 46.3024 50 41.4816C50 35.7235 51.2667 30.1329 53.8 24.7095C56.3334 19.487 59.8667 14.7668 64.4 10.5486C68.9334 6.33044 74.2 2.91578 80.2 0.304538L84.6 7.23435C77.2666 11.2516 71.8 16.1728 68.2 21.9978C65.9333 25.7473 64.3334 30.2332 63.4 35.4557C66.0667 34.0497 69.2667 33.5475 73 33.9492C76 34.2171 78.7333 35.1544 81.2 36.7613C83.6667 38.3683 85.6167 40.4606 87.05 43.0383C88.4834 45.6161 89.2 48.4114 89.2 51.4244C89.1333 54.6382 88.3167 57.5842 86.75 60.2624C85.1833 62.9406 83.0667 65.0664 80.4 66.6398C77.7333 68.2133 74.8 69 71.6 69C69 69 66.4834 68.4644 64.05 67.3931C61.6167 66.3218 59.5667 64.8823 57.9 63.0745Z" fill="#403D39"/>
</svg>
